<svg aria-hidden="true" style="position: absolute; width: 0; height: 0; overflow: hidden;" version="1.1" xmlns="http://www.w3.org/2000/svg" xmlns:xlink="http://www.w3.org/1999/xlink">
<defs>
<symbol id="icon-search" viewBox="0 0 32 32">
<path fill="#808184" style="fill: var(--color1, #808184)" d="M13.525 26.614c2.117 0 4.208-0.524 6.070-1.519l5.606 5.766c0.654 0.673 1.568 1.090 2.579 1.090 0.004 0 0.007 0 0.011-0h-0.001c0.003 0 0.006 0 0.009 0 1.012 0 1.926-0.417 2.58-1.089l0.001-0.001c0.659-0.678 1.065-1.605 1.065-2.627s-0.406-1.949-1.066-2.628l0.001 0.001-5.542-5.652c1.111-1.917 1.767-4.218 1.767-6.672v-0c0-7.352-5.868-13.332-13.081-13.332-7.212 0-13.081 5.98-13.081 13.332s5.868 13.331 13.081 13.331zM13.525 0.951c6.661 0 12.081 5.532 12.081 12.332 0 2.293-0.632 4.541-1.828 6.502-0.044 0.073-0.071 0.161-0.071 0.255 0 0.169 0.085 0.318 0.214 0.408l0.002 0.001 5.744 5.857c0.483 0.498 0.781 1.178 0.781 1.927s-0.298 1.43-0.782 1.928l0.001-0.001c-0.999 1.018-2.755 1.017-3.75 0.001l-5.875-6.043c-0.090-0.097-0.216-0.159-0.357-0.163l-0.001-0c-0.105 0.001-0.202 0.038-0.277 0.101l0.001-0.001c-1.69 0.98-3.719 1.558-5.882 1.558v0c-6.661 0-12.081-5.531-12.081-12.331s5.419-12.332 12.080-12.332z"></path>
<path fill="#808184" style="fill: var(--color1, #808184)" d="M13.525 21.532c4.465 0 8.098-3.7 8.098-8.249s-3.633-8.25-8.098-8.25c-4.465 0-8.098 3.701-8.098 8.25s3.633 8.249 8.098 8.249zM13.525 6.033c3.914 0 7.098 3.252 7.098 7.25 0 3.997-3.184 7.249-7.098 7.249s-7.098-3.252-7.098-7.249c0-3.998 3.184-7.25 7.098-7.25z"></path>
</symbol>
</defs>
</svg>
